<svg width="10.000000" height="8.000000" viewBox="0 0 10 8" fill="none" xmlns="http://www.w3.org/2000/svg" xmlns:xlink="http://www.w3.org/1999/xlink">
	<desc>
			Created with Pixso.
	</desc>
	<defs/>
	<path id="Vector" d="M8.44 0.25C8.61 0.08 8.84 -0.01 9.08 0C9.32 0 9.55 0.09 9.72 0.26C9.89 0.43 9.99 0.66 9.99 0.9C10 1.14 9.91 1.37 9.75 1.55L4.86 7.7C4.77 7.79 4.67 7.86 4.56 7.91C4.45 7.97 4.33 7.99 4.2 7.99C4.08 8 3.95 7.97 3.84 7.93C3.73 7.88 3.62 7.81 3.53 7.72L0.29 4.46C0.2 4.38 0.12 4.27 0.07 4.16C0.02 4.05 0 3.92 0 3.8C-0.01 3.68 0.02 3.55 0.06 3.44C0.11 3.32 0.18 3.22 0.26 3.13C0.35 3.04 0.46 2.97 0.57 2.93C0.69 2.88 0.81 2.86 0.93 2.86C1.05 2.86 1.18 2.89 1.29 2.94C1.4 2.99 1.5 3.06 1.59 3.15L4.16 5.73L8.42 0.28C8.42 0.27 8.43 0.26 8.44 0.25L8.44 0.25Z" fill="#F4F4FD" fill-opacity="1.000000" fill-rule="nonzero"/>
</svg>
